<svg width="24" height="25" viewBox="0 0 24 25" fill="none" xmlns="http://www.w3.org/2000/svg">
<path d="M13.314 12.571L8.36396 7.62098C8.18181 7.43238 8.08101 7.17978 8.08329 6.91758C8.08557 6.65538 8.19074 6.40457 8.37615 6.21916C8.56155 6.03375 8.81237 5.92859 9.07456 5.92631C9.33676 5.92403 9.58936 6.02482 9.77796 6.20698L15.435 11.864C15.6224 12.0515 15.7278 12.3058 15.7278 12.571C15.7278 12.8361 15.6224 13.0905 15.435 13.278L9.77796 18.935C9.58936 19.1171 9.33676 19.2179 9.07456 19.2157C8.81237 19.2134 8.56155 19.1082 8.37615 18.9228C8.19074 18.7374 8.08557 18.4866 8.08329 18.2244C8.08101 17.9622 8.18181 17.7096 8.36396 17.521L13.314 12.571Z" fill="#697077"/>
</svg>
