<svg width="25" height="24" viewBox="0 0 25 24" fill="none" xmlns="http://www.w3.org/2000/svg">
<path d="M20.5 9C20.5 8.73478 20.3946 8.48043 20.2071 8.29289C20.0196 8.10536 19.7652 8 19.5 8H11.915L11.444 6.666C11.3748 6.47105 11.2468 6.30233 11.0778 6.18307C10.9087 6.06381 10.7069 5.99985 10.5 6H5.5C5.23478 6 4.98043 6.10536 4.79289 6.29289C4.60536 6.48043 4.5 6.73478 4.5 7V9H20.5ZM20.5 11H4.5V17C4.5 17.2652 4.60536 17.5196 4.79289 17.7071C4.98043 17.8946 5.23478 18 5.5 18H19.5C19.7652 18 20.0196 17.8946 20.2071 17.7071C20.3946 17.5196 20.5 17.2652 20.5 17V11ZM13.33 6H19.5C20.2956 6 21.0587 6.31607 21.6213 6.87868C22.1839 7.44129 22.5 8.20435 22.5 9V17C22.5 17.7956 22.1839 18.5587 21.6213 19.1213C21.0587 19.6839 20.2956 20 19.5 20H5.5C4.70435 20 3.94129 19.6839 3.37868 19.1213C2.81607 18.5587 2.5 17.7956 2.5 17V7C2.5 6.20435 2.81607 5.44129 3.37868 4.87868C3.94129 4.31607 4.70435 4 5.5 4H10.5C11.806 4 12.917 4.835 13.33 6Z" fill="#21272A"/>
</svg>
