<svg width="25" height="24" viewBox="0 0 25 24" fill="none" xmlns="http://www.w3.org/2000/svg">
<path fill-rule="evenodd" clip-rule="evenodd" d="M10.1 4.8C7.44903 4.8 5.29999 6.94903 5.29999 9.6C5.29999 12.251 7.44903 14.4 10.1 14.4C12.751 14.4 14.9 12.251 14.9 9.6C14.9 6.94903 12.751 4.8 10.1 4.8ZM2.89999 9.6C2.89999 5.62355 6.12354 2.4 10.1 2.4C14.0764 2.4 17.3 5.62355 17.3 9.6C17.3 11.155 16.807 12.5949 15.9689 13.7718L21.7485 19.5515C22.2172 20.0201 22.2172 20.7799 21.7485 21.2485C21.2799 21.7172 20.5201 21.7172 20.0515 21.2485L14.2718 15.4689C13.0949 16.3071 11.655 16.8 10.1 16.8C6.12354 16.8 2.89999 13.5765 2.89999 9.6Z" fill="#21272A"/>
</svg>
