<svg width="25" height="24" viewBox="0 0 25 24" fill="none" xmlns="http://www.w3.org/2000/svg">
<path d="M3.33201 19C2.78142 17.7384 2.49813 16.3765 2.50001 15C2.50001 9.477 6.97701 5 12.5 5C18.023 5 22.5 9.477 22.5 15C22.5019 16.3765 22.2186 17.7384 21.668 19H3.33201ZM20.248 17C20.5515 15.8183 20.5807 14.5828 20.3334 13.388C20.0861 12.1933 19.5687 11.0709 18.821 10.1068C18.0732 9.14276 17.1148 8.36248 16.0192 7.82569C14.9235 7.2889 13.7196 7.00984 12.4995 7.00984C11.2794 7.00984 10.0755 7.2889 8.97985 7.82569C7.88419 8.36248 6.92582 9.14276 6.17807 10.1068C5.43031 11.0709 4.91297 12.1933 4.66563 13.388C4.41828 14.5828 4.44749 15.8183 4.75101 17H20.248ZM12.5 10C12.2348 10 11.9804 9.89464 11.7929 9.70711C11.6054 9.51957 11.5 9.26522 11.5 9C11.5 8.73478 11.6054 8.48043 11.7929 8.29289C11.9804 8.10536 12.2348 8 12.5 8C12.7652 8 13.0196 8.10536 13.2071 8.29289C13.3947 8.48043 13.5 8.73478 13.5 9C13.5 9.26522 13.3947 9.51957 13.2071 9.70711C13.0196 9.89464 12.7652 10 12.5 10ZM7.50001 14C7.23479 14 6.98044 13.8946 6.7929 13.7071C6.60537 13.5196 6.50001 13.2652 6.50001 13C6.50001 12.7348 6.60537 12.4804 6.7929 12.2929C6.98044 12.1054 7.23479 12 7.50001 12C7.76523 12 8.01958 12.1054 8.20712 12.2929C8.39465 12.4804 8.50001 12.7348 8.50001 13C8.50001 13.2652 8.39465 13.5196 8.20712 13.7071C8.01958 13.8946 7.76523 14 7.50001 14ZM17.5 14C17.2348 14 16.9804 13.8946 16.7929 13.7071C16.6054 13.5196 16.5 13.2652 16.5 13C16.5 12.7348 16.6054 12.4804 16.7929 12.2929C16.9804 12.1054 17.2348 12 17.5 12C17.7652 12 18.0196 12.1054 18.2071 12.2929C18.3947 12.4804 18.5 12.7348 18.5 13C18.5 13.2652 18.3947 13.5196 18.2071 13.7071C18.0196 13.8946 17.7652 14 17.5 14ZM12.5 11C12.7652 11 13.0196 11.1054 13.2071 11.2929C13.3947 11.4804 13.5 11.7348 13.5 12V15C13.5 15.2652 13.3947 15.5196 13.2071 15.7071C13.0196 15.8946 12.7652 16 12.5 16C12.2348 16 11.9804 15.8946 11.7929 15.7071C11.6054 15.5196 11.5 15.2652 11.5 15V12C11.5 11.7348 11.6054 11.4804 11.7929 11.2929C11.9804 11.1054 12.2348 11 12.5 11Z" fill="#21272A"/>
</svg>
